<svg width="54" height="55" viewBox="0 0 54 55" fill="none" xmlns="http://www.w3.org/2000/svg">
    <path
        d="M27.5369 54C26.6469 50.6162 25.3779 47.4351 23.7301 44.4654C22.0822 41.4958 18.8923 36.8871 14.1602 30.6305C10.6883 26.0395 8.55581 23.1315 7.7451 21.8978C6.4233 19.8887 5.47161 18.047 4.8812 16.3727C4.2908 14.6984 4 12.9977 4 11.2706C4 8.08943 5.05744 5.41939 7.18114 3.26926C9.30483 1.11913 11.9308 0.0440601 15.0591 0.0440601C18.1873 0.0440601 20.9543 1.16319 23.2807 3.40144C25.0343 5.06691 26.453 7.54308 27.5369 10.8476C28.4798 7.60477 29.8192 5.1374 31.5375 3.4455C33.9168 1.15437 36.6749 0 39.8032 0C42.9315 0 45.5222 1.06625 47.6811 3.20757C49.8313 5.34889 50.9063 7.88675 50.9063 10.8476C50.9063 13.4295 50.2719 16.1172 49.0117 18.9194C47.7516 21.7128 45.3107 25.3786 41.6978 29.9168C36.9922 35.8561 33.5643 40.7291 31.4142 44.5447C29.7223 47.5584 28.4269 50.7131 27.5457 54.0088L27.5369 54Z"
    />
</svg>