<svg width="54" height="55" viewBox="0 0 54 55" fill="none" xmlns="http://www.w3.org/2000/svg">
    <path
        d="M27.0443 1.00002C27.7965 4.16223 28.9469 6.98305 30.5044 9.46251C32.0619 11.9509 34.8319 15.0233 38.823 18.6976C42.8142 22.3718 45.3363 25.1837 46.4071 27.1421C47.469 29.1005 48.0089 31.0859 48.0089 33.1072C48.0089 35.91 47.0885 38.2547 45.2478 40.1233C43.4071 41.9919 41.1593 42.9262 38.5044 42.9262C36.2566 42.9262 34.2212 42.2165 32.3894 40.7971C30.5575 39.3777 28.9381 37.3115 27.531 34.5894C27.5575 38.8926 28.115 42.3063 29.1947 44.8307C30.2743 47.364 32 49.3494 34.3805 50.7957C36.7611 52.2421 39.9204 53.0955 43.8673 53.365L44.1681 54.991H9.88496L10.2301 53.365C15.531 53.365 19.646 51.7929 22.5664 48.6487C25.4867 45.5044 26.8938 40.815 26.7788 34.5894C25.4867 37.3654 23.8761 39.4495 21.9646 40.842C20.0442 42.2344 17.885 42.9262 15.4602 42.9262C12.8673 42.9262 10.646 41.9739 8.78761 40.0784C6.9292 38.1739 6 35.901 6 33.2329C6 31.0949 6.47788 29.1724 7.42478 27.4386C8.71681 25.04 10.823 22.6324 13.7345 20.1978C16.646 17.7723 18.7876 15.7689 20.177 14.1878C22.2832 11.7623 23.8142 9.59726 24.7788 7.69275C25.7434 5.78824 26.4956 3.55135 27.0443 0.982056V1.00002Z"
    />
</svg>