<svg width="57" height="80" viewBox="0 0 57 80" fill="none" xmlns="http://www.w3.org/2000/svg">
<path fill-rule="evenodd" clip-rule="evenodd" d="M20.6761 18.1556L31.5157 0L42.3498 18.1556H31.5157H20.6761ZM9.88688 25.2181V19.4661H53.2679V25.2181H9.88688ZM48.3637 21.3385L51.0653 24.0205H51.0877H52.9485L48.3862 19.4943L44.1714 23.6663L39.9566 19.4943L35.7418 23.6663L31.527 19.4943L27.3122 23.6663L23.0974 19.4943L18.8826 23.6663L14.6678 19.4943L10.0887 24.0205H11.9494L14.6678 21.3385L17.3693 24.0205H20.3734L23.0918 21.3385L25.7933 24.0205H28.7974L31.5158 21.3385L34.2173 24.0205H37.2214L39.9398 21.3385L42.6413 24.0205H45.6454L48.3637 21.3385ZM17.3412 37.6538H25.4737H25.4794C25.4794 37.6538 25.5746 42.36 21.4103 42.36C17.2459 42.36 17.3412 37.6538 17.3412 37.6538ZM21.4103 41.168C22.2286 41.168 22.8507 40.9374 23.3103 40.4708L23.3159 40.4764C23.7643 40.0153 24.0109 39.3912 24.1398 38.8514H18.6863C18.8153 39.3968 19.0563 40.0153 19.5103 40.4764C19.9698 40.9431 20.592 41.168 21.4103 41.168ZM25.4738 47.4729C23.4561 48.6987 23.5178 53.6298 28.4164 54.0683C28.5156 54.0772 28.6135 54.0846 28.7099 54.0904C27.1626 55.9875 24.483 57.201 22.7835 57.201H15.2955V53.6306H20.9227L15.2955 50.9149V49.6554C15.2955 49.6554 20.6705 51.4546 21.8587 50.1052C23.0413 48.7558 22.4023 47.7605 21.8587 47.3726C21.315 46.9846 19.9362 46.889 19.9026 48.559C19.9026 48.559 20.8946 47.1926 21.4159 48.126C21.9427 49.0537 20.9955 49.7903 20.0091 49.7285C19.0226 49.6666 15.8167 49.0313 15.2899 48.6995V46.5629H10.963H10.9574L15.4748 37.7241L13.5131 31.0668L13.7205 30.9994C13.7205 30.9994 14.2474 30.7688 15.5253 30.7688C16.5621 30.7688 18.1091 30.915 20.2837 31.4548C23.4209 32.2247 25.7154 33.0824 27.5648 33.8905C28.283 35.2269 31.4412 41.3183 32.5583 46.101C33.3205 49.3678 32.463 51.3301 31.5662 52.2072C31.1524 52.6083 30.699 52.8153 29.9413 52.8715H29.4868L29.4792 52.8876L29.4701 52.8876C29.3991 52.8876 29.3082 52.8901 29.2087 52.8929C28.9782 52.8994 28.7012 52.9072 28.5172 52.8876C26.2641 52.6851 25.642 51.4257 25.4738 50.6947C25.244 49.7051 25.614 48.7886 26.0792 48.5019C28.5172 46.6689 30.4621 47.7541 30.0754 49.1485C29.6886 50.5429 28.6518 51.1951 28.6518 51.1951C28.6518 51.1951 31.3869 50.8016 31.471 49.0642C31.555 47.3267 30.0417 46.309 28.5621 46.309C27.0824 46.309 25.4626 47.4786 25.4626 47.4786L25.4738 47.4729ZM30.2091 54.0472C30.2358 54.0436 30.2624 54.0399 30.2888 54.036C29.7214 55.3067 27.6943 59.3447 23.8764 61.6654C20.7713 63.549 17.7111 63.8639 13.3394 63.8639H12.3529L17.8008 58.3986H22.7722C25.16 58.3986 28.6188 56.639 30.2091 54.0472ZM32.7279 52.8715C34.0419 51.5122 34.2941 49.1053 33.7465 46.0223C33.1322 42.5462 30.6627 37.3561 29.3112 34.6916C29.5619 34.811 29.8048 34.928 30.0417 35.0421C30.1393 35.0888 30.2352 35.1351 30.33 35.1807C30.5888 35.3055 30.838 35.4257 31.0842 35.5369L31.2187 35.5987L31.4283 35.6959L31.4286 35.6961L31.429 35.6962C32.2683 36.0855 33.2398 36.5361 34.2733 36.9819C35.0187 38.3201 37.7651 43.4704 37.7651 46.8553C37.7651 50.6675 37.5745 51.4659 35.9715 52.8715H32.7279ZM49.6304 39.5908C49.6304 39.5908 51.3174 41.2158 51.9284 45.354V45.3597C52.5393 49.4979 52.3151 51.2803 50.6729 52.8828H51.8275V57.9207H34.6264C34.6264 57.9207 33.1579 63.6727 26.18 66.8382C20.4284 69.4474 17.1481 69.4171 7.29059 69.3258H7.29047H7.29035H7.29021H7.29006H7.28989H7.28971C5.18801 69.3063 2.78734 69.2841 0 69.2841L11.6804 57.2122H14.096V47.7662H9.01249L14.1969 37.6116L12.0839 30.4371L9.89245 26.9173H53.2735L49.6304 39.5908ZM49.4118 36.0485L51.693 28.1093V28.1037H22.3519C26.1377 29.1779 28.6136 30.3687 30.562 31.3057C30.9184 31.4771 31.2571 31.64 31.583 31.7922L31.6896 31.842C34.0644 32.9517 37.7246 34.662 40.6123 35.1883C43.538 35.7224 45.7239 35.9923 48.644 36.0485H49.4118ZM15.4972 28.1093H12.0391L12.0335 28.1037L13.1768 29.9367C13.1768 29.9367 14.9704 28.919 20.564 30.2965C25.397 31.4868 28.3345 32.8995 30.5733 33.9762L30.5733 33.9762C30.9256 34.1456 31.2606 34.3067 31.583 34.4573L31.6896 34.5071C34.0644 35.6169 37.7246 37.3272 40.6123 37.8534C42.0864 38.1233 43.3755 38.3257 44.659 38.4663C45.9256 38.6068 47.1923 38.6856 48.644 38.7137L49.0643 37.2405H48.644C45.8303 37.1843 43.5996 36.9482 40.3993 36.3634C37.3783 35.8124 33.668 34.0862 31.2187 32.9392L31.0842 32.8773C30.838 32.7662 30.5889 32.6461 30.3302 32.5213C30.2354 32.4756 30.1393 32.4293 30.0417 32.3825C27.7885 31.2974 24.9805 29.9479 20.2837 28.7953C18.1091 28.2555 16.5621 28.1093 15.5253 28.1093H15.4972ZM41.1504 39.1579C41.9964 41.2656 43.5425 45.3849 43.5436 47.3986C43.5429 49.5561 42.904 51.3767 41.7333 52.8659H44.5244C46.1442 51.7076 46.7047 50.3526 46.7047 47.6931C46.7047 45.5115 44.8775 41.4913 43.8911 39.5683C43.0336 39.4615 42.1312 39.3265 41.1504 39.1579ZM37.6474 52.8715H40.1303H40.1359C41.6099 51.4378 42.361 49.6048 42.361 47.4007C42.361 45.5115 40.6571 41.0358 39.7604 38.8824C38.5497 38.6068 37.2606 38.1739 35.9995 37.6847C37.1317 39.9001 38.9533 43.9146 38.9533 46.8553C38.9533 50.1727 38.7795 51.539 37.6474 52.8715ZM12.1794 58.393L6.96114 63.7851C8.06528 63.7908 9.10777 63.8076 10.0942 63.8245C10.296 63.8301 10.4978 63.8357 10.6939 63.8357L16.1194 58.393H12.1794ZM7.28623 68.1202C7.54405 68.1258 7.79064 68.1258 8.04286 68.1258V65.0053C7.31984 64.994 6.58001 64.9828 5.80655 64.9828L2.80239 68.0865C4.00884 68.0906 5.13304 68.1009 6.18624 68.1105H6.1864H6.18655H6.18668H6.1868H6.18692H6.18702C6.56227 68.1139 6.9285 68.1173 7.28623 68.1202ZM9.23109 68.1371C10.0998 68.1483 10.9181 68.1483 11.6804 68.1483C13.4403 68.1483 14.9368 68.1202 16.2763 68.0415L16.1306 64.9715C14.0736 65.0952 11.8093 65.0615 9.23109 65.0221V68.1371ZM17.4645 67.9566C20.0849 67.7203 22.1574 67.2199 24.5938 66.2085L23.2543 63.3409C21.3935 64.2349 19.4262 64.6791 17.2235 64.8816H17.3188L17.4645 67.9566ZM24.3136 62.7843L25.6924 65.7362L25.6979 65.7306C29.498 64.0044 31.5157 61.5023 32.5358 59.7256L29.4363 57.9319C28.293 59.5513 26.6732 61.3618 24.4985 62.6831L24.3136 62.7843ZM33.7016 56.7118H42.7141V54.0635H31.5662C31.5662 54.0635 31.101 55.3062 30.0865 56.9367L33.0738 58.6685C33.3285 58.0991 33.4425 57.7111 33.4683 57.6234L33.4683 57.6234L33.4683 57.6233L33.4718 57.6114L33.7016 56.7118ZM43.9023 56.7118H50.6337V54.0579H43.9023V56.7118ZM48.9634 52.8659L49.8378 52.0113C50.9868 50.8867 51.3679 49.7341 50.7458 45.5171C50.2189 41.913 48.8009 40.4398 48.8009 40.4398L48.2853 39.9394L48.3021 39.8888C47.254 39.8663 46.2787 39.8101 45.2979 39.7201C46.2451 41.6543 47.8985 45.2922 47.8985 47.6931C47.8985 50.0939 47.4445 51.6458 46.3292 52.8659H48.9634ZM16.9096 34.6639L16.9109 34.6706L16.9096 34.6695V34.6639ZM16.9109 34.6706C16.9361 34.7892 17.3278 36.4407 19.6784 36.4407C20.4336 36.4407 21.0237 36.3716 21.557 36.3092C22.7454 36.1701 23.6516 36.0641 25.4737 36.8286C25.4737 36.8286 26.1127 36.8286 25.9837 36.2888C25.9837 36.2888 24.235 35.1587 21.4046 35.6198C18.6585 36.0671 18.1652 35.6729 17.0172 34.7555L16.9109 34.6706ZM31.5157 80.0001L44.1377 58.8477H35.3718C33.4213 63.4695 29.4195 67.0624 24.308 68.7492L31.5157 80.0001ZM5.71696 39.729L9.11346 45.0311L13.205 37.4124L11.3834 31.5592L5.71696 39.729ZM52.9483 45.4481L56.5522 39.7299L52.4326 33.7923L50.7176 39.1676C52.1636 40.9612 52.6905 43.3565 52.9483 45.4537V45.4481ZM11.4954 48.7476L13.2048 51.4127V48.7476H11.4954Z" fill="white"/>
</svg>
