<svg width="47" height="11" viewBox="0 0 47 11" fill="none" xmlns="http://www.w3.org/2000/svg">
    <g>
        <path
            d="M20.2036 3.97705C20.6666 3.35879 21.1809 2.82083 21.6356 2.23267C22.0655 1.67641 22.545 1.15793 22.9956 0.617021C23.0564 0.543797 23.1072 0.505414 23.2046 0.505414C24.3615 0.508366 25.5183 0.508957 26.6751 0.505414C26.8186 0.505414 26.8812 0.533168 26.8393 0.692607C26.756 1.00499 26.7105 1.33036 26.6645 1.64452C26.6025 2.06792 26.5068 2.48482 26.4442 2.90763C26.3485 3.55188 26.2216 4.19141 26.1112 4.8333C26.0804 5.01223 26.0072 5.08841 25.8029 5.07837C25.36 5.05652 24.9159 5.07187 24.4719 5.07187C21.0646 5.07187 17.6573 5.07187 14.2501 5.07187C13.93 5.07187 13.9324 5.07187 13.992 4.75831C14.0575 4.41345 14.116 4.06799 14.1816 3.72313C14.3079 3.05762 14.4201 2.38916 14.5465 1.72365C14.5955 1.46736 14.6988 1.20458 14.664 0.921727C14.6292 0.63828 14.778 0.507185 15.0614 0.507185C16.1232 0.507185 17.1849 0.516043 18.2467 0.500099C18.4799 0.496556 18.5726 0.588086 18.6624 0.779413C19.1478 1.81577 19.6456 2.84622 20.1399 3.87844C20.1534 3.90619 20.1729 3.93099 20.2025 3.97705H20.2036Z"
            fill="white" />
        <path
            d="M26.2712 10.4933C26.3864 9.70677 26.6291 8.96331 26.6793 8.19151C26.7094 7.72677 26.8487 7.29333 26.9385 6.84513C26.9981 6.54692 27.0359 6.2428 27.0661 5.93987C27.0873 5.72315 27.1511 5.61981 27.4038 5.62099C30.1131 5.63103 32.823 5.6393 35.5323 5.61627C36.0366 5.61213 36.3543 5.8383 36.6171 6.19615C37.0883 6.83863 37.0151 7.54253 36.7517 8.22871C36.3543 9.26388 35.5323 9.83137 34.5166 10.178C33.7737 10.4319 33.0149 10.5016 32.2366 10.4969C30.3351 10.4857 28.4337 10.4933 26.5322 10.4933H26.2706H26.2712Z"
            fill="white" />
        <path
            d="M22.324 5.66205C21.2818 6.85548 20.2767 8.00758 19.2587 9.17325C18.9191 8.68549 18.7349 8.1493 18.468 7.65622C18.1461 7.06157 17.8373 6.46043 17.5202 5.86342C17.4966 5.81972 17.4889 5.74236 17.4192 5.74885C17.3395 5.75653 17.3673 5.83566 17.359 5.8829C17.2787 6.31634 17.2037 6.75155 17.1257 7.18558C16.997 7.89951 16.8452 8.61049 16.7472 9.32915C16.7076 9.61732 16.5766 9.89014 16.6267 10.2002C16.648 10.3318 16.5884 10.5037 16.3421 10.4996C15.2886 10.4836 14.2352 10.4889 13.1811 10.4966C13.0116 10.4978 12.9644 10.4311 13.0028 10.2911C13.1403 9.78562 13.1699 9.26124 13.2809 8.75104C13.3901 8.24851 13.4551 7.73535 13.5667 7.23341C13.673 6.75627 13.7185 6.27028 13.8005 5.79019C13.8212 5.66855 13.8584 5.61953 13.9954 5.62012C16.7265 5.62426 19.4571 5.62248 22.1882 5.62248C23.3669 5.62248 24.545 5.62957 25.7236 5.62248C25.9256 5.6213 25.9652 5.68744 25.9321 5.87109C25.7526 6.85902 25.5813 7.84814 25.4042 8.83666C25.3144 9.33801 25.2069 9.83699 25.1302 10.3401C25.1077 10.4866 25.0493 10.4948 24.9341 10.4948C23.8564 10.4919 22.7793 10.4889 21.7016 10.4972C21.4997 10.499 21.492 10.4222 21.5227 10.2574C21.6066 9.80747 21.6331 9.34332 21.7566 8.90575C21.9827 8.10265 21.9745 7.26294 22.1853 6.45925C22.2485 6.2195 22.3252 5.97916 22.324 5.66205Z"
            fill="white" />
        <path
            d="M31.5001 5.07309C30.1851 5.07309 28.8694 5.07309 27.5543 5.07309C27.2608 5.07309 27.2791 5.07486 27.3039 4.78728C27.3848 3.86371 27.6736 2.97735 27.7527 2.05024C27.7941 1.56661 27.9836 1.09596 28.0202 0.602884C28.0255 0.52966 28.0604 0.507811 28.1253 0.509582C28.1726 0.510763 28.2204 0.509582 28.2676 0.509582C30.328 0.509582 32.3877 0.491867 34.4474 0.519031C35.1832 0.528479 35.9142 0.654849 36.5668 1.05345C37.1945 1.43669 37.5275 2.25101 37.3669 3.01396C37.1667 3.9641 36.614 4.56347 35.8085 5.00341C35.7064 5.05951 35.6054 5.07545 35.4926 5.07545C34.1616 5.07368 32.8306 5.07427 31.4995 5.07427L31.5001 5.07309Z"
            fill="white" />
        <path
            d="M41.456 10.4936C40.102 10.4936 38.7473 10.4936 37.3933 10.4936C37.1098 10.4936 37.0779 10.4836 37.1618 10.2173C37.284 9.82753 37.3159 9.42539 37.388 9.02856C37.5179 8.3105 37.6696 7.59479 37.757 6.87082C37.8031 6.48699 37.9749 6.1315 37.9649 5.7388C37.9608 5.59117 38.0936 5.62838 38.1798 5.62779C38.7024 5.62483 39.2251 5.6266 39.7477 5.6266C40.2939 5.6266 40.8407 5.62719 41.3869 5.6266C41.5712 5.6266 41.7188 5.60535 41.5883 5.88938C41.4932 6.09606 41.5121 6.35353 41.4684 6.58678C41.4194 6.84897 41.3615 7.10998 41.3013 7.36981C41.2594 7.5505 41.2818 7.63908 41.5092 7.6379C43.0297 7.62845 44.5503 7.6379 46.0709 7.62786C46.29 7.62668 46.3278 7.67156 46.2853 7.88828C46.127 8.69433 45.987 9.50393 45.8548 10.3147C45.8247 10.4989 45.7243 10.4948 45.5902 10.4942C44.212 10.4925 42.8343 10.493 41.456 10.493V10.4936Z"
            fill="white" />
        <path
            d="M7.46983 10.4933C6.10751 10.4933 4.74519 10.4909 3.38287 10.4962C3.19037 10.4968 3.14253 10.4803 3.17974 10.2494C3.23111 9.92992 3.37697 9.73623 3.63207 9.55731C5.44023 8.28888 7.24012 7.00864 9.04119 5.72958C9.14335 5.65695 9.2461 5.62506 9.3707 5.62506C10.3923 5.62861 11.4145 5.63215 12.4361 5.62211C12.6274 5.62034 12.6581 5.6788 12.6203 5.84591C12.3888 6.8616 12.3044 7.90386 12.0552 8.91719C11.9489 9.35062 11.9076 9.80119 11.8538 10.2458C11.8302 10.4401 11.7617 10.5009 11.558 10.4992C10.1957 10.488 8.83333 10.4933 7.47101 10.4933H7.46983Z"
            fill="white" />
        <path
            d="M9.22828 0.507854C10.5989 0.507854 11.97 0.510216 13.3406 0.504901C13.5066 0.504311 13.5833 0.516712 13.5361 0.720439C13.4499 1.09719 13.3891 1.48043 13.3288 1.8625C13.2544 2.33786 13.1647 2.81086 13.095 3.28682C13.0318 3.72085 12.9509 4.16787 12.8233 4.59717C12.821 4.60485 12.8157 4.61135 12.8139 4.61902C12.7855 4.76252 12.805 4.96093 12.7176 5.03652C12.6019 5.13691 12.3993 5.06959 12.2346 5.07018C11.3075 5.07313 10.3792 5.04656 9.45386 5.08317C9.04876 5.09911 8.76295 4.95503 8.50017 4.68989C8.16594 4.35211 7.83053 4.01552 7.49866 3.67538C7.27249 3.4439 7.02625 3.23604 6.78886 3.01754C6.1198 2.40046 5.52988 1.70247 4.84311 1.10309C4.79174 1.05821 4.77166 1.01629 4.79233 0.939521C4.91102 0.509035 4.90807 0.507854 5.37753 0.507854H9.22887H9.22828Z"
            fill="white" />
        <path
            d="M38.0693 5.07075C38.1821 4.56999 38.299 4.09994 38.3628 3.61926C38.4165 3.21712 38.4431 2.80789 38.5399 2.41638C38.6504 1.96759 38.7407 1.52411 38.7584 1.05997C38.7643 0.903481 38.85 0.737546 38.8706 0.568068C38.8801 0.49012 38.9551 0.507835 39.0053 0.507835C40.1385 0.506064 41.2717 0.507835 42.4049 0.504883C42.5212 0.504883 42.5365 0.556848 42.5153 0.651921C42.3387 1.44912 42.2537 2.26226 42.0641 3.05886C41.9407 3.57733 41.8917 4.11293 41.8102 4.64085C41.8067 4.66447 41.8079 4.68869 41.8031 4.71172C41.7555 4.95107 41.611 5.07055 41.3697 5.07016C40.2766 5.07016 39.1836 5.07016 38.0681 5.07016L38.0693 5.07075Z"
            fill="white" />
        <path
            d="M3.17847 5.62663C4.05775 5.62663 4.93643 5.63135 5.81512 5.62308C6.01058 5.62131 6.05074 5.6845 5.99228 5.8587C5.6362 6.91808 4.94116 7.66391 3.91839 8.10679C3.47727 8.29753 3.01194 8.37843 2.53658 8.35008C1.62955 8.29635 0.954588 7.86645 0.531188 7.05272C0.324507 6.65471 0.29262 6.22954 0.301477 5.79256C0.30502 5.62426 0.397141 5.62545 0.517606 5.62545C1.40456 5.62722 2.29152 5.62663 3.17847 5.62663Z"
            fill="white" />
        <path
            d="M3.29195 5.07149C2.42094 5.07149 1.55052 5.07208 0.679509 5.07149C0.462199 5.07149 0.432083 5.02307 0.528337 4.82288C0.856073 4.14025 1.28124 3.53556 1.9562 3.15468C2.98724 2.57302 4.04899 2.3811 5.11015 3.05606C5.74968 3.46293 6.06678 4.08474 6.10221 4.84828C6.11048 5.02307 6.06324 5.07858 5.88077 5.07622C5.01803 5.06618 4.15528 5.07208 3.29195 5.07208V5.07149Z"
            fill="white" />
    </g>
</svg>