<svg width="196" height="72" viewBox="0 0 196 72" fill="none" xmlns="http://www.w3.org/2000/svg">
<g id="main-logo 1" clip-path="url(#clip0_11_4305)">
<g id="arte">
<path id="Vector" d="M0 16.8766H10.6083C10.6083 16.8766 11.1278 17.6205 10.9008 18.2581C10.9008 18.2581 8.91337 18.0961 9.43799 20.5201C9.9626 22.9441 14.2705 45.0076 14.2705 45.0076C14.2705 45.0076 29.3985 20.8642 29.8828 19.9837C30.367 19.1032 30.3922 18.2733 29.7415 18.3036C29.0908 18.334 29.0303 17.8381 29.9382 16.8766H35.5274C35.5274 16.8766 35.5829 18.1316 34.2764 18.3593C32.9699 18.587 32.4049 19.0981 31.9762 19.6699C31.5474 20.2418 14.2453 48.2716 14.2453 48.2716H10.9261C10.1997 48.2716 8.12141 48.0742 7.58671 45.5997C7.05201 43.1251 2.87528 21.5626 2.71891 20.5808C2.56253 19.5991 1.96225 18.3593 1.14002 18.3593C0.317794 18.3593 0 18.1822 0 16.8766Z" fill="#121212"/>
<path id="Vector_2" d="M45.1773 46.9913C44.3702 46.7636 44.3853 45.9033 44.1835 44.9873C43.9817 44.0663 40.8341 27.8679 40.4356 25.9854C40.0371 24.1029 39.3208 23.946 38.5591 23.946H34.2915C34.2915 25.3882 35.1289 25.2668 35.1289 25.2668C35.1289 25.2668 24.8435 41.8246 23.3251 44.2283C21.8118 46.6269 21.4486 47.0267 20.5759 47.1482C19.6982 47.2696 19.2795 48.2716 19.2795 48.2716H24.0565C24.5912 47.5732 24.7829 47.1431 24.2533 47.1431C23.7236 47.1431 23.5218 46.713 24.0011 45.9033C24.4803 45.0936 28.087 39.3196 28.087 39.3196L38.2816 39.3703C38.2816 39.3703 38.3825 39.7498 38.9878 42.9885C39.5932 46.2272 39.7697 46.9356 38.8617 47.0621C37.9537 47.1886 38.5338 48.2665 38.5338 48.2665H46.3072C46.3072 47.2898 45.9793 47.2139 45.1722 46.9862L45.1773 46.9913ZM28.8991 38.0798L35.7645 26.79L38.0092 38.0798H28.8991Z" fill="#121212"/>
<path id="Vector_3" d="M71.1708 48.2716H47.4371C47.4371 48.2716 47.1042 47.4417 48.1887 47.2291C49.2732 47.0166 49.4296 46.1057 49.6415 45.043C49.8533 43.9803 53.4197 26.957 53.5055 26.4965C53.5912 26.036 53.566 25.454 53.0918 25.3275C52.6176 25.201 51.9266 25.4945 52.4915 24.2243H60.7189C60.7189 24.2243 61.0518 25.0593 60.1993 25.2263C59.3468 25.3933 59.0996 25.2668 58.5801 27.7464C58.0605 30.226 55.0137 44.2991 54.8119 45.2252C54.6102 46.1513 54.1108 47.214 56.0226 47.214H63.8312C64.6383 47.214 66.4745 46.6016 67.3068 44.9772C68.1391 43.3528 68.5074 42.9379 70.7571 42.8164L71.1809 48.2665L71.1708 48.2716Z" fill="#121212"/>
<path id="Vector_4" d="M98.1984 29.7504L100.832 24.2294H77.1685C76.6086 25.4996 77.2946 25.2111 77.7688 25.3326C78.248 25.4591 78.2682 26.041 78.1825 26.5015C78.1017 26.962 74.5253 43.9854 74.3185 45.0481C74.1117 46.1108 73.9502 47.0267 72.8657 47.2342C71.7812 47.4417 72.1141 48.2766 72.1141 48.2766H95.8478L95.4241 42.8265C93.1743 42.948 92.4529 43.2668 91.7921 44.876C91.1313 46.4852 89.3053 47.219 88.4982 47.219H80.6895C78.7827 47.219 79.2821 46.1563 79.4788 45.2303C79.5797 44.7596 80.4121 40.8327 81.2646 36.8097H84.7452C85.6582 36.8097 87.9332 36.9564 87.7617 38.3734C87.5902 39.7852 89.3406 39.512 89.3406 39.512L90.7177 33.0093C89.8954 33.0093 89.1691 32.7461 88.5789 34.1833C87.9836 35.6205 85.8095 35.6205 85.2193 35.6205C84.7855 35.6205 82.6366 35.5952 81.5016 35.58C82.2482 32.0478 82.9595 28.799 83.1511 27.8577C83.5396 25.9651 83.8119 25.3174 84.7351 25.3174C85.6582 25.3174 91.8577 25.287 92.9221 25.287C93.9864 25.287 95.7973 25.95 95.5401 27.4529C95.2828 28.9559 96.1151 29.634 98.1934 29.7554L98.1984 29.7504Z" fill="#121212"/>
<path id="Vector_5" d="M148.107 29.7504L150.74 24.2294H127.077C126.517 25.4996 127.203 25.2111 127.678 25.3326C128.157 25.4591 128.177 26.041 128.091 26.5015C128.011 26.962 124.434 43.9854 124.227 45.0481C124.02 46.1108 123.859 47.0267 122.775 47.2342C121.69 47.4417 122.023 48.2766 122.023 48.2766H145.757L145.333 42.8265C143.083 42.948 142.362 43.2668 141.701 44.876C141.04 46.4852 139.214 47.219 138.407 47.219H130.598C128.692 47.219 129.191 46.1563 129.388 45.2303C129.489 44.7596 130.321 40.8327 131.173 36.8097H134.654C135.567 36.8097 137.842 36.9564 137.671 38.3734C137.499 39.7852 139.249 39.512 139.249 39.512L140.626 33.0093C139.804 33.0093 139.078 32.7461 138.488 34.1833C137.892 35.6205 135.718 35.6205 135.128 35.6205C134.694 35.6205 132.545 35.5952 131.41 35.58C132.157 32.0478 132.868 28.799 133.06 27.8577C133.448 25.9651 133.721 25.3174 134.644 25.3174C135.567 25.3174 141.767 25.287 142.831 25.287C143.895 25.287 145.706 25.95 145.449 27.4529C145.192 28.9559 146.024 29.634 148.102 29.7554L148.107 29.7504Z" fill="#121212"/>
<path id="Vector_6" d="M105.15 48.2716H113.453C113.453 48.2716 113.715 47.7099 112.817 47.6744C111.919 47.639 112.333 45.7717 112.711 44.1777C113.089 42.5836 116.131 28.3132 116.373 27.0329C116.615 25.7526 116.958 25.2668 119.274 25.2668C121.589 25.2668 122.553 25.4743 123.143 27.2758C123.733 29.0773 123.183 29.6593 125.71 29.6593L126.058 24.2294H102.542L100.524 29.6997C100.524 29.6997 102.32 30.0793 103.389 28.4852C104.459 26.8912 104.978 25.2617 108.328 25.2617C111.677 25.2617 111.435 25.5046 111.057 27.1999C110.678 28.8951 107.223 45.2454 107.016 46.0804C106.809 46.9154 106.532 47.4315 106.083 47.5328C105.634 47.634 105.15 47.7554 105.15 48.2665V48.2716Z" fill="#121212"/>
<path id="Vector_7" d="M167.911 33.8898H160.592C160.592 33.8898 160.506 38.1254 164.254 38.1254C168.002 38.1254 167.916 33.8898 167.916 33.8898H167.911ZM165.964 36.4251C165.551 36.8451 164.991 37.0526 164.254 37.0526C163.518 37.0526 162.958 36.8502 162.544 36.4301C162.136 36.0152 161.919 35.4585 161.803 34.9677H166.711C166.595 35.4535 166.373 36.0152 165.969 36.4301L165.964 36.4251Z" fill="#121212"/>
<path id="Vector_8" d="M153.883 17.5193V22.6961H192.926V17.5193H153.883ZM190.944 21.6182L188.513 19.2044L186.066 21.6182H183.362L180.931 19.2044L178.484 21.6182H175.781L173.349 19.2044L170.903 21.6182H168.199L165.768 19.2044L163.321 21.6182H160.617L158.186 19.2044L155.739 21.6182H154.065L158.186 17.5446L161.979 21.2994L165.773 17.5446L169.566 21.2994L173.359 17.5446L177.153 21.2994L180.946 17.5446L184.739 21.2994L188.533 17.5446L192.639 21.6182H190.964H190.944Z" fill="#121212"/>
<path id="Vector_9" d="M167.911 42.7253C166.096 43.8285 166.151 48.2665 170.56 48.6612C174.969 49.056 176.189 46.1057 175.357 41.4197C174.585 37.0526 170.56 29.6795 170.56 29.6795L169.662 30.2615C169.707 30.3272 173.158 36.6528 174.288 41.4906C174.974 44.4307 174.202 46.1968 173.395 46.9862C172.951 47.4164 172.456 47.5985 171.508 47.5985C171.296 47.5985 170.888 47.6238 170.651 47.5985C168.623 47.4164 168.063 46.2828 167.911 45.625C167.705 44.7343 168.038 43.9095 168.456 43.6514C170.651 42.0017 172.401 42.9784 172.053 44.2333C171.705 45.4883 170.772 46.0753 170.772 46.0753C170.772 46.0753 173.233 45.7211 173.309 44.1574C173.385 42.5938 172.023 41.6778 170.691 41.6778C169.359 41.6778 167.901 42.7304 167.901 42.7304L167.911 42.7253Z" fill="#121212"/>
<path id="Vector_10" d="M191.721 40.8175C191.171 37.0931 189.653 35.6306 189.653 35.6306L192.931 24.2243H153.888L155.86 27.3922L157.762 33.8493L153.096 42.9885H157.671V51.49H155.497L144.985 62.3548C159.26 62.3548 162.267 63.0025 168.547 60.1535C174.827 57.3045 176.149 52.1276 176.149 52.1276H191.63V47.5935H190.591C192.069 46.1513 192.271 44.5471 191.721 40.8226V40.8175ZM191.509 25.2972L189.456 32.4425H188.765C186.137 32.3919 184.169 32.149 181.536 31.6683C178.898 31.1875 175.544 29.6087 173.41 28.6118C171.513 27.7262 169.132 26.4358 165.102 25.2921H191.509V25.2972ZM155.82 25.2972H158.932C158.932 25.2972 158.953 25.2972 158.958 25.2972C159.891 25.2972 161.283 25.4287 163.24 25.9145C167.468 26.9519 169.995 28.1664 172.023 29.1431C172.35 29.3 172.658 29.4518 172.961 29.5884L173.082 29.6441C175.286 30.6764 178.626 32.23 181.345 32.7259C184.225 33.2522 186.233 33.4647 188.765 33.5153H189.143L188.765 34.8412C187.458 34.8159 186.318 34.745 185.178 34.6185C184.023 34.492 182.863 34.3098 181.536 34.0669C178.898 33.5862 175.544 32.0073 173.41 31.0104C171.276 30.0135 168.527 28.5055 163.493 27.2657C158.458 26.0259 156.844 26.9418 156.844 26.9418L155.815 25.2921L155.82 25.2972ZM184.174 42.6595C184.174 40.8479 182.782 37.1386 182.021 35.2409C182.903 35.3927 183.715 35.5142 184.487 35.6104C185.375 37.341 187.019 40.9592 187.019 42.9227C187.019 45.3163 186.515 46.5358 185.057 47.5783H182.545C183.599 46.2373 184.174 44.5977 184.174 42.6545V42.6595ZM181.102 47.5834H178.868C179.887 46.384 180.043 45.1543 180.043 42.1687C180.043 39.5221 178.404 35.9089 177.385 33.9151C178.52 34.3554 179.68 34.745 180.769 34.993C181.577 36.9311 183.11 40.9592 183.11 42.6595C183.11 44.6432 182.434 46.2929 181.107 47.5834H181.102ZM154.847 41.9055L158.912 33.9505L157.147 27.959L157.333 27.8982C157.333 27.8982 157.808 27.6908 158.958 27.6908C159.891 27.6908 161.283 27.8223 163.24 28.3081C167.468 29.3455 169.995 30.56 172.023 31.5367C172.35 31.6936 172.658 31.8454 172.961 31.982L173.082 32.0377C173.879 32.4071 174.822 32.8473 175.831 33.2825C176.502 34.4869 178.974 39.1223 178.974 42.1687C178.974 45.5997 178.802 46.3182 177.36 47.5834H172.663H171.523C170.434 49.9061 167.326 51.4799 165.49 51.4799H158.751V48.2665H163.815L158.751 45.8223V44.6888C158.751 44.6888 163.588 46.3081 164.658 45.0936C165.722 43.8791 165.147 42.9834 164.658 42.6342C164.169 42.2851 162.928 42.199 162.897 43.702C162.897 43.702 163.79 42.4723 164.259 43.3123C164.734 44.1473 163.881 44.8102 162.993 44.7546C162.105 44.6989 159.22 44.1271 158.746 43.8285V41.9055H154.852H154.847ZM172.441 48.1501L172.396 48.2766C172.376 48.3222 170.57 53.0082 166.474 55.4979C163.679 57.1931 160.925 57.4765 156.99 57.4765C156.703 57.4765 156.405 57.4765 156.103 57.4765L161.006 52.5578H165.48C167.775 52.5578 171.17 50.7512 172.441 48.1552V48.1501ZM155.946 52.5527H159.492L154.609 57.4512C154.433 57.4512 154.251 57.4462 154.07 57.4411C153.182 57.4259 152.244 57.4107 151.25 57.4057L155.951 52.5477L155.946 52.5527ZM152.223 61.3123C151.997 61.3123 151.775 61.3123 151.543 61.3073C150.317 61.2972 148.98 61.282 147.507 61.2769L150.211 58.4836C150.907 58.4836 151.573 58.4937 152.223 58.5038V61.3123ZM155.497 61.3326C154.811 61.3326 154.075 61.3326 153.293 61.3225V58.519C155.613 58.5544 157.651 58.5848 159.503 58.4734L159.634 61.2364C158.428 61.3073 157.081 61.3326 155.497 61.3326ZM160.703 61.1605L160.572 58.3925H160.486C162.469 58.2103 164.239 57.8105 165.914 57.0059L167.119 59.5867C164.925 60.4976 163.059 60.948 160.698 61.1605H160.703ZM168.108 59.1617L166.867 56.5049C166.923 56.4746 166.978 56.4442 167.034 56.4138C168.991 55.2246 170.449 53.5952 171.478 52.1378L174.267 53.752C173.349 55.3511 171.533 57.603 168.113 59.1566L168.108 59.1617ZM183.428 51.0396H175.317L175.11 51.8493C175.095 51.8999 174.994 52.2592 174.752 52.8007L172.063 51.2421C172.976 49.7745 173.395 48.6562 173.395 48.6562H183.428V51.0447V51.0396ZM190.556 51.0396H184.497V48.6511H190.556V51.0396ZM189.839 46.8091L189.052 47.5783H186.681C187.685 46.4802 188.094 45.0835 188.094 42.9227C188.094 40.7619 186.606 37.4878 185.753 35.747C186.636 35.8279 187.514 35.8786 188.457 35.8988L188.442 35.9443L188.906 36.3947C188.906 36.3947 190.182 37.7206 190.656 40.9643C191.216 44.7596 190.873 45.797 189.839 46.8091Z" fill="#121212"/>
<path id="Vector_11" d="M160.204 31.1976C160.204 31.1976 160.501 32.7967 162.696 32.7967C164.89 32.7967 165.535 32.149 167.911 33.1459C167.911 33.1459 168.486 33.1459 168.37 32.6601C168.37 32.6601 166.797 31.643 164.249 32.0579C161.702 32.4729 161.308 32.0832 160.204 31.2027V31.1976Z" fill="#121212"/>
<path id="Vector_12" d="M173.349 0L163.594 16.3402H173.349H183.1L173.349 0Z" fill="#121212"/>
<path id="Vector_13" d="M173.349 72L184.709 52.9626H176.82C175.064 57.1223 171.463 60.3559 166.862 61.8741L173.349 72Z" fill="#121212"/>
<path id="Vector_14" d="M153.187 40.5291L150.13 35.7571L155.23 28.4043L156.869 33.6722L153.187 40.5291Z" fill="#121212"/>
<path id="Vector_15" d="M192.639 40.9036L195.882 35.7571L192.175 30.4133L190.631 35.2511C191.933 36.8653 192.407 39.0211 192.639 40.9086V40.9036Z" fill="#121212"/>
<path id="Vector_16" d="M156.869 46.2727L155.331 43.874H156.869V46.2727Z" fill="#121212"/>
</g>
</g>
<defs>
<clipPath id="clip0_11_4305">
<rect width="195.882" height="72" fill="white"/>
</clipPath>
</defs>
</svg>
